<?xml version="1.0" standalone="no"?>
<!DOCTYPE svg PUBLIC "-//W3C//DTD SVG 20010904//EN"
 "http://www.w3.org/TR/2001/REC-SVG-20010904/DTD/svg10.dtd">
<svg version="1.0" xmlns="http://www.w3.org/2000/svg"
 width="300.000000pt" height="300.000000pt" viewBox="0 0 300.000000 300.000000"
 preserveAspectRatio="xMidYMid meet">
<metadata>
Created by potrace 1.15, written by Peter Selinger 2001-2017
</metadata>
<g transform="translate(0.000000,300.000000) scale(0.100000,-0.100000)"
fill="#000000" stroke="none">
<path d="M1245 2985 c-323 -57 -597 -205 -831 -448 -200 -207 -330 -453 -391
-737 -26 -122 -26 -478 0 -600 64 -301 195 -539 416 -761 222 -221 460 -352
761 -416 122 -26 478 -26 600 0 301 64 539 195 761 416 221 222 352 460 416
761 26 122 26 478 0 600 -64 301 -195 539 -416 761 -219 218 -454 348 -751
414 -104 24 -454 30 -565 10z m296 -374 c4 -3 117 -157 251 -341 l245 -335
117 -537 c65 -296 116 -548 114 -560 -2 -18 -81 -72 -373 -256 -306 -192 -375
-232 -400 -229 -47 5 -754 453 -761 482 -3 12 46 260 111 556 87 400 122 543
139 569 69 106 480 656 494 662 17 7 52 1 63 -11z"/>
<path d="M1560 2254 l0 -130 121 -214 c67 -118 128 -226 136 -239 15 -23 16
-19 54 95 22 66 38 126 36 134 -3 11 -305 433 -344 479 -1 2 -3 -54 -3 -125z"/>
<path d="M1409 2340 c-58 -77 -305 -416 -313 -428 -8 -13 63 -262 74 -261 3 0
65 106 138 237 l133 236 -3 126 -3 125 -26 -35z"/>
<path d="M1357 1734 l-139 -246 82 -256 c46 -142 87 -272 92 -289 l9 -33 99 0
98 0 52 163 c28 89 70 219 92 288 l40 127 -138 246 c-77 135 -141 246 -144
245 -3 0 -67 -110 -143 -245z"/>
<path d="M1027 1655 c-13 -43 -88 -397 -85 -401 4 -3 41 61 118 201 l27 50
-27 85 c-19 61 -28 79 -33 65z"/>
<path d="M1939 1585 l-26 -84 71 -125 c39 -69 72 -123 74 -121 5 4 -80 398
-87 407 -4 4 -18 -30 -32 -77z"/>
<path d="M1019 1138 c-62 -111 -115 -208 -117 -215 -3 -10 36 -13 182 -13 130
0 186 3 186 11 0 13 -130 419 -134 419 -1 0 -54 -91 -117 -202z"/>
<path d="M1802 1153 c-34 -103 -64 -200 -67 -215 l-7 -28 192 0 192 0 -20 33
c-11 17 -61 106 -112 197 -51 91 -99 173 -106 183 -11 16 -20 -6 -72 -170z"/>
<path d="M1012 784 c11 -11 372 -234 374 -231 2 1 -14 55 -34 120 l-36 117
-155 0 c-85 0 -152 -3 -149 -6z"/>
<path d="M1648 673 c-20 -65 -35 -119 -34 -120 3 -3 363 220 374 232 3 3 -64
5 -149 5 l-154 0 -37 -117z"/>
</g>
</svg>
