<?xml version="1.0" standalone="no"?>
<!DOCTYPE svg PUBLIC "-//W3C//DTD SVG 20010904//EN"
 "http://www.w3.org/TR/2001/REC-SVG-20010904/DTD/svg10.dtd">
<svg version="1.0" xmlns="http://www.w3.org/2000/svg"
 width="512.000000pt" height="512.000000pt" viewBox="0 0 512.000000 512.000000"
 preserveAspectRatio="xMidYMid meet">
<metadata>
Created by potrace 1.15, written by Peter Selinger 2001-2017
</metadata>
<g transform="translate(0.000000,512.000000) scale(0.100000,-0.100000)"
fill="#000000" stroke="none">
<path d="M2329 5116 c-3 -3 -41 -7 -85 -7 -43 -1 -83 -5 -89 -9 -5 -4 -39 -13
-75 -19 -36 -7 -73 -15 -83 -18 -18 -5 -18 -4 -2 21 17 26 17 26 -7 26 -14 0
-43 -16 -68 -37 -29 -25 -70 -46 -129 -65 -47 -15 -88 -28 -90 -28 -2 0 21 27
52 59 32 33 57 62 57 65 0 3 -11 6 -25 6 -19 0 -51 -24 -118 -89 -82 -79 -105
-94 -212 -145 l-120 -57 138 139 c75 76 137 142 137 145 0 4 -12 7 -26 7 -21
0 -71 -44 -238 -207 -131 -129 -249 -235 -311 -280 -191 -138 -400 -347 -538
-538 -44 -62 -151 -181 -279 -311 -164 -167 -208 -217 -208 -238 0 -14 3 -26
7 -26 3 0 69 62 145 138 l139 137 -57 -120 c-51 -107 -66 -130 -145 -212 -65
-67 -89 -99 -89 -118 0 -14 3 -25 6 -25 3 0 32 25 65 57 32 31 59 54 59 52 0
-2 -13 -43 -28 -90 -19 -59 -40 -100 -65 -129 -21 -25 -37 -54 -37 -68 0 -24
0 -24 26 -7 25 16 26 16 21 -2 -3 -10 -11 -47 -18 -83 -6 -36 -15 -69 -19 -75
-21 -28 -19 -862 2 -849 7 5 14 -14 23 -68 6 -29 2 -44 -15 -68 -12 -16 -20
-39 -18 -51 l3 -21 27 21 26 21 12 -50 12 -50 -41 -46 c-23 -27 -41 -57 -41
-70 0 -13 2 -24 5 -24 3 0 25 18 49 40 24 23 46 37 49 33 2 -4 10 -25 17 -46
l12 -38 -66 -70 c-45 -47 -66 -77 -66 -94 0 -14 3 -25 6 -25 3 0 37 30 75 67
38 36 71 64 72 62 2 -2 11 -22 19 -44 l16 -40 -94 -97 c-69 -71 -94 -104 -94
-122 0 -15 3 -26 6 -26 4 0 51 43 105 96 l97 96 22 -42 21 -42 -125 -128 c-97
-98 -126 -134 -126 -154 0 -38 15 -27 154 113 l120 120 24 -40 24 -41 -161
-163 c-126 -127 -161 -168 -161 -189 0 -14 3 -26 7 -26 4 0 82 74 173 165
l167 166 25 -38 26 -38 -199 -201 c-158 -160 -199 -206 -199 -228 0 -14 3 -26
7 -26 4 0 100 92 213 206 l207 205 25 -38 26 -38 -239 -241 c-194 -195 -239
-246 -239 -268 0 -22 3 -25 18 -17 9 5 123 116 252 245 129 130 237 236 240
236 3 0 16 -16 29 -36 l24 -35 -281 -283 c-230 -231 -282 -287 -282 -310 0
-22 3 -25 18 -17 9 5 143 136 297 290 l279 281 33 -32 33 -32 -330 -331 c-269
-270 -330 -336 -330 -358 0 -15 3 -27 7 -27 4 0 160 153 348 340 l340 340 31
-35 30 -34 -344 -343 c-189 -189 -348 -351 -353 -361 -8 -14 -5 -17 18 -17 22
0 88 61 373 345 l346 345 32 -33 32 -33 -296 -294 c-162 -162 -300 -303 -305
-312 -8 -15 -5 -18 17 -18 23 0 81 54 325 296 l297 296 37 -27 36 -28 -260
-262 c-144 -143 -261 -264 -261 -268 0 -4 12 -7 27 -7 21 0 75 49 278 250 138
137 255 250 260 250 6 -1 23 -12 40 -25 l30 -25 -218 -218 c-119 -120 -217
-221 -217 -225 0 -4 12 -7 27 -7 21 0 69 43 239 211 l213 212 35 -23 c20 -12
36 -25 36 -28 0 -4 -75 -81 -166 -172 -91 -91 -170 -173 -175 -182 -8 -15 -5
-18 17 -18 21 0 62 35 198 170 95 94 176 170 182 170 5 0 24 -9 43 -21 l34
-20 -142 -143 c-77 -78 -141 -146 -141 -149 0 -4 12 -7 26 -7 20 0 58 32 165
137 l139 136 40 -18 c22 -10 40 -21 40 -24 0 -4 -43 -49 -96 -101 -114 -114
-125 -130 -89 -130 20 0 53 26 134 105 l108 105 41 -17 c23 -9 42 -19 42 -22
0 -4 -30 -36 -66 -71 -83 -83 -94 -100 -59 -100 18 0 48 22 105 76 l79 76 38
-12 c21 -7 42 -15 46 -17 4 -3 -15 -29 -42 -58 -28 -30 -51 -56 -51 -59 0 -3
11 -6 24 -6 15 0 45 19 80 51 l56 51 49 -13 50 -13 -31 -35 c-32 -36 -32 -36
-9 -39 14 -2 37 8 61 27 38 30 41 31 89 20 46 -10 50 -13 41 -30 -9 -16 -7
-19 10 -19 11 0 31 6 43 14 17 11 33 12 77 3 65 -12 700 -18 715 -7 6 5 39 13
75 20 36 6 73 13 83 16 18 6 18 5 2 -20 -17 -26 -17 -26 7 -26 14 0 43 16 66
36 26 22 65 42 106 54 35 10 75 21 87 25 19 6 12 -5 -28 -48 -29 -31 -53 -58
-53 -61 0 -3 11 -6 25 -6 18 0 50 23 110 81 76 73 96 86 196 129 l112 49 -122
-123 c-66 -68 -121 -126 -121 -129 0 -4 12 -7 26 -7 21 0 64 37 203 174 134
133 201 191 281 243 287 189 551 454 739 743 46 69 109 142 237 271 137 139
174 182 174 203 0 14 -3 26 -7 26 -3 0 -61 -55 -129 -121 l-123 -122 49 112
c43 100 56 120 129 196 58 60 81 92 81 110 0 14 -3 25 -6 25 -3 0 -30 -24 -61
-52 -43 -41 -54 -48 -48 -29 4 12 15 52 25 87 12 41 32 80 54 106 20 23 36 52
36 66 0 24 0 24 -26 7 -25 -16 -26 -16 -20 2 3 10 10 47 16 83 7 36 15 70 20
75 11 15 5 650 -7 715 -9 44 -8 60 3 77 8 12 14 32 14 43 0 17 -3 19 -19 10
-17 -9 -20 -5 -30 41 -11 48 -10 51 20 89 19 24 29 47 27 61 -3 23 -3 23 -39
-9 l-35 -31 -13 50 -13 49 51 56 c32 35 51 65 51 80 0 13 -3 24 -6 24 -3 0
-29 -23 -59 -51 -29 -27 -55 -46 -58 -42 -2 4 -10 25 -17 46 l-12 38 76 79
c54 57 76 87 76 105 0 35 -17 24 -100 -59 -35 -36 -67 -66 -71 -66 -3 0 -13
19 -22 42 l-17 41 105 108 c79 81 105 114 105 134 0 36 -16 25 -130 -89 -52
-53 -97 -96 -101 -96 -3 0 -14 18 -24 40 l-18 40 136 139 c105 107 137 145
137 165 0 14 -3 26 -7 26 -3 0 -71 -64 -149 -141 l-143 -142 -20 34 c-12 19
-21 38 -21 43 0 6 77 87 170 182 135 136 170 177 170 198 0 22 -3 25 -17 17
-10 -5 -92 -84 -183 -175 -91 -91 -168 -166 -172 -166 -3 0 -16 16 -28 36
l-23 35 212 213 c168 170 211 218 211 239 0 15 -3 27 -7 27 -4 0 -105 -98
-225 -217 l-218 -218 -25 30 c-13 17 -24 34 -25 40 0 5 113 122 250 260 201
203 250 257 250 278 0 15 -3 27 -7 27 -4 0 -125 -117 -268 -261 l-262 -260
-28 36 -27 37 296 297 c242 244 296 302 296 325 0 22 -3 25 -17 17 -10 -5
-151 -143 -313 -305 l-294 -296 -33 32 -33 32 345 346 c284 285 345 351 345
373 0 23 -3 26 -17 18 -10 -5 -172 -164 -361 -353 l-343 -344 -34 30 -35 31
340 340 c187 188 340 344 340 348 0 4 -12 7 -27 7 -22 0 -88 -61 -358 -330
l-331 -330 -32 33 -32 33 281 279 c154 154 285 288 290 298 8 14 5 17 -17 17
-23 0 -79 -52 -310 -282 l-283 -281 -35 24 c-20 13 -36 26 -36 29 0 3 106 111
236 240 129 129 240 243 245 253 8 14 5 17 -17 17 -22 0 -73 -45 -268 -239
l-241 -239 -38 26 -38 25 205 207 c114 113 206 209 206 213 0 4 -12 7 -26 7
-22 0 -68 -41 -228 -199 l-201 -199 -38 26 -38 25 166 167 c91 91 165 169 165
173 0 4 -12 7 -26 7 -21 0 -62 -35 -189 -161 l-163 -161 -41 24 -40 24 120
120 c140 139 151 154 113 154 -20 0 -56 -29 -154 -126 l-128 -125 -42 21 -42
22 96 97 c53 54 96 101 96 105 0 3 -11 6 -26 6 -18 0 -51 -25 -122 -94 l-97
-94 -40 16 c-22 8 -42 17 -44 19 -2 1 26 34 62 72 37 38 67 72 67 75 0 3 -11
6 -25 6 -17 0 -47 -21 -94 -66 l-70 -66 -38 12 c-21 7 -42 15 -46 17 -4 3 10
25 33 49 22 24 40 46 40 49 0 3 -11 5 -24 5 -13 0 -43 -18 -70 -41 l-46 -41
-50 12 -50 12 21 26 21 27 -21 3 c-12 2 -35 -6 -51 -18 -24 -17 -39 -21 -68
-15 -57 10 -73 16 -67 25 3 5 -23 9 -57 8 -35 0 -187 3 -338 7 -151 4 -278 4
-281 1z m-944 -1376 l-1180 -1180 -3 47 c-2 26 -1 56 2 67 3 12 506 522 1118
1134 l1113 1112 65 0 65 0 -1180 -1180z m1362 1166 c1 -1 -568 -572 -1266
-1270 l-1268 -1268 -7 58 -7 58 1218 1218 1218 1219 55 -7 c30 -4 56 -7 57 -8z
m-1462 -1066 c-588 -588 -1071 -1068 -1072 -1066 -2 2 1 34 6 72 l10 68 989
989 989 989 54 8 c30 4 63 8 74 9 13 1 -377 -396 -1050 -1069z m1623 1052 c19
-6 -44 -73 -535 -563 -547 -546 -559 -557 -603 -562 -59 -7 -100 -50 -100
-105 0 -36 -24 -61 -719 -756 -715 -715 -718 -718 -725 -686 -3 18 -6 44 -6
59 0 21 234 260 1297 1323 1244 1244 1299 1298 1333 1297 19 -1 45 -4 58 -7z
m-788 -15 c0 -1 -423 -425 -940 -942 -518 -517 -939 -933 -936 -925 2 8 12 47
21 86 l16 70 837 837 837 837 80 19 c44 11 81 20 83 20 1 1 2 0 2 -2z m944
-13 l38 -7 -338 -338 -339 -339 -65 0 -65 0 350 350 c224 224 355 348 365 345
8 -2 32 -7 54 -11z m140 -36 c22 -6 43 -13 46 -15 2 -2 -137 -145 -310 -318
l-315 -315 -65 0 -65 0 330 330 c181 182 332 330 334 330 2 0 22 -5 45 -12z
m-1354 -21 c0 -1 -347 -349 -770 -772 l-771 -770 26 72 c14 39 32 86 40 105 8
20 261 280 647 665 l633 631 95 36 c102 38 100 37 100 33z m1517 -32 l37 -16
-289 -289 -290 -290 -65 0 -65 0 305 305 c168 168 311 305 318 305 7 0 29 -7
49 -15z m130 -52 c21 -10 40 -19 43 -21 2 -1 -135 -142 -305 -312 l-309 -309
-23 41 -24 42 288 288 c158 158 289 288 290 288 1 0 19 -8 40 -17z m-194 -465
l-378 -378 -3 62 -3 62 337 337 337 337 44 -21 44 -21 -378 -378z m-1793 409
c0 -1 -239 -241 -531 -532 l-532 -530 43 80 c96 179 138 229 437 526 289 288
319 313 493 411 84 47 90 50 90 45z m2280 -96 c12 -9 -62 -87 -380 -406 l-395
-395 -47 0 c-39 0 -48 3 -48 17 0 10 180 198 402 420 399 399 402 402 427 388
14 -8 33 -19 41 -24z m96 -63 c16 -12 31 -23 34 -25 2 -2 -155 -163 -350 -358
l-355 -355 -65 0 -65 0 380 380 c209 209 383 380 386 380 4 0 19 -10 35 -22z
m127 -92 l28 -20 -313 -313 -313 -313 -65 0 -65 0 339 339 c187 187 345 337
350 334 6 -4 24 -16 39 -27z m102 -86 l29 -31 -304 -304 c-296 -296 -304 -303
-318 -282 -8 12 -22 28 -31 35 -13 11 24 52 284 312 165 165 302 300 306 300
3 0 18 -14 34 -30z m-222 -482 l-358 -358 -3 62 -3 62 328 328 327 328 33 -32
33 -32 -357 -358z m422 282 l29 -31 -404 -404 -405 -405 -3 62 -3 62 373 373
c205 205 375 373 379 373 3 0 18 -14 34 -30z m-2207 -267 l-93 -93 -65 0 -65
0 155 155 155 155 3 -62 3 -62 -93 -93z m2322 127 c0 -3 -291 -295 -646 -650
l-646 -645 177 240 177 240 442 443 441 443 28 -33 c15 -18 27 -35 27 -38z
m-1915 -120 l-100 -101 -3 62 c-3 60 -2 63 35 101 35 36 40 38 102 38 l66 0
-100 -100z m195 48 l0 -53 -322 -322 -323 -323 -65 0 -65 0 170 170 c136 137
175 170 197 170 62 0 108 46 108 107 0 22 27 54 137 165 76 76 143 138 150
138 9 0 13 -17 13 -52z m927 -925 c-742 -743 -886 -883 -909 -883 -27 0 -25 4
64 128 83 114 172 207 882 919 l789 792 28 -37 27 -37 -881 -882z m939 783
l16 -29 -818 -818 -819 -819 -65 0 -65 0 860 860 c585 585 862 855 867 847 5
-7 16 -25 24 -41z m-2088 -333 l-223 -223 -65 0 -65 0 285 285 285 285 3 -62
3 -62 -223 -223z m2157 216 l19 -40 -755 -755 -754 -754 -65 0 -65 0 795 795
c437 437 798 795 801 795 3 0 14 -18 24 -41z m-1874 -89 l31 -13 -169 -169
-168 -168 -65 0 -65 0 195 195 c138 138 197 191 202 181 4 -7 22 -19 39 -26z
m1942 -51 l15 -36 -687 -687 -686 -686 -65 0 -65 0 730 730 c401 401 733 726
736 722 4 -4 14 -23 22 -43z m-2668 -119 l-160 -160 -3 62 -3 62 98 98 98 98
65 0 65 0 -160 -160z m790 -10 l-170 -170 -65 0 -65 0 170 170 170 170 65 0
65 0 -170 -170z m140 -60 l-230 -230 -6 35 c-3 20 -11 41 -18 48 -9 9 32 55
171 194 l183 183 65 0 65 0 -230 -230z m355 192 c0 -36 -19 -56 -557 -592
-306 -305 -552 -548 -546 -540 5 8 85 116 178 240 162 218 179 237 519 578
292 293 356 352 378 352 26 0 28 -3 28 -38z m-2362 -799 l-703 -703 -12 52
-12 53 712 713 712 712 3 -62 3 -62 -703 -703z m3802 657 l14 -41 -633 -633
-632 -632 -45 20 -44 21 657 657 c361 361 660 655 663 653 4 -2 13 -23 20 -45z
m-1474 -118 c-19 -26 -366 -378 -770 -782 -671 -670 -736 -732 -736 -704 0 23
23 62 96 160 83 111 192 225 768 802 l671 672 3 -50 c3 -45 -1 -56 -32 -98z
m-2303 -714 c-373 -373 -680 -678 -683 -678 -3 0 -12 21 -18 47 l-13 47 693
693 693 693 3 -62 3 -62 -678 -678z m3826 685 l12 -47 -648 -648 -648 -648 -3
62 -3 62 633 633 c348 348 636 633 639 633 4 0 12 -21 18 -47z m-3135 -173 c4
-11 -187 -208 -659 -680 l-664 -664 -16 37 c-8 20 -15 42 -15 49 0 7 300 313
668 681 l667 667 6 -37 c3 -21 9 -45 13 -53z m3180 0 l6 -35 -670 -670 -670
-670 0 65 0 65 657 657 c509 509 659 654 664 640 3 -9 9 -33 13 -52z m-3049
-50 l40 0 -715 -715 c-393 -393 -717 -715 -720 -715 -3 0 -13 19 -23 42 l-17
43 677 678 c542 541 682 677 698 672 11 -2 38 -5 60 -5z m-545 -785 l-785
-785 -22 43 -22 42 742 743 742 742 65 0 65 0 -785 -785z m140 -60 c-465 -465
-847 -845 -851 -845 -3 0 -15 17 -27 37 l-21 38 807 808 807 807 65 0 65 0
-845 -845z m993 813 c-16 -30 -1750 -1778 -1763 -1778 -3 0 -16 16 -29 36
l-25 35 870 870 869 869 48 0 48 0 -18 -32z m2490 -78 l6 -46 -684 -684 -685
-685 0 65 0 65 672 672 c370 370 675 669 679 665 3 -4 9 -27 12 -52z m-1910
-57 c-290 -396 -273 -375 -737 -840 -242 -244 -444 -443 -448 -443 -5 0 -8 26
-8 57 l0 58 622 622 c343 343 624 623 626 623 1 0 -24 -35 -55 -77z m700
-1405 l-1228 -1228 -65 0 -65 0 1290 1290 1290 1290 3 -62 3 -62 -1228 -1228z
m-1748 915 l-185 -248 -513 -513 -513 -513 -27 38 -27 38 722 722 c398 398
724 723 725 723 1 0 -81 -111 -182 -247z m1848 -1015 l-1138 -1138 -65 0 -65
0 1200 1200 1200 1200 3 -62 3 -62 -1138 -1138z m1122 979 l-7 -64 -1017
-1016 -1016 -1016 -70 -6 -70 -7 1090 1091 c599 599 1091 1088 1093 1086 2 -2
1 -32 -3 -68z m-39 -242 l-14 -68 -870 -870 -869 -869 -64 -14 c-35 -7 -71
-13 -79 -14 -8 0 417 432 945 960 528 528 961 956 963 952 1 -5 -4 -39 -12
-77z m-2449 9 c-25 -36 -32 -55 -32 -95 l0 -49 -190 -190 -190 -190 -65 0 -65
0 285 285 c157 157 286 285 287 285 2 0 -12 -21 -30 -46z m88 -184 l40 0 -170
-170 -170 -170 -65 0 -65 0 175 175 c137 138 179 175 195 171 11 -3 38 -6 60
-6z m60 -180 c-146 -146 -184 -180 -200 -174 -11 3 -35 8 -54 11 l-33 5 168
169 169 169 65 0 65 0 -180 -180z m115 -85 l-265 -265 -3 62 -3 62 203 203
203 203 65 0 65 0 -265 -265z m300 99 c-109 -109 -178 -171 -204 -181 -29 -12
-43 -27 -57 -57 -11 -26 -72 -95 -164 -186 l-145 -145 0 65 0 65 302 302 303
303 65 0 65 0 -165 -166z m350 159 c0 -4 -73 -81 -162 -170 l-163 -163 -65 0
-65 0 170 170 170 170 57 0 c32 0 58 -3 58 -7z m1465 -85 l-27 -83 -687 -686
-686 -687 -80 -26 c-44 -14 -85 -26 -90 -26 -5 0 350 360 790 800 439 439 801
797 803 795 2 -2 -8 -41 -23 -87z m-3589 -447 l-386 -386 -32 33 -33 32 415
415 415 415 3 -62 3 -62 -385 -385z m2062 262 l-62 -63 -66 0 -65 0 125 125
125 125 3 -61 3 -62 -63 -64z m-2015 -415 l-337 -338 -33 32 -33 32 367 368
368 368 3 -62 3 -62 -338 -338z m3421 310 c-84 -168 -95 -181 -488 -576 -398
-400 -410 -410 -586 -497 l-75 -37 590 591 c324 325 591 591 593 591 1 0 -14
-33 -34 -72z m-3068 -122 c13 -21 -2 -37 -286 -321 l-300 -300 -32 33 -33 32
315 315 c286 286 315 313 318 289 2 -15 10 -37 18 -48z m1047 -188 l-57 -58
-66 0 -65 0 120 120 120 120 3 -61 3 -62 -58 -59z m-1190 -190 l-332 -331 -36
28 -37 28 303 303 304 304 65 0 65 0 -332 -332z m158 -42 l-374 -374 -38 27
-38 26 347 348 347 347 65 0 65 0 -374 -374z m163 -37 l-412 -412 -41 24 -42
23 388 388 388 388 65 0 65 0 -411 -411z m1276 276 l-135 -135 -3 62 -3 61 73
74 72 73 66 0 65 0 -135 -135z m-230 -430 l-564 -565 -41 6 c-22 3 -47 8 -55
10 -9 3 184 203 540 559 l555 555 65 0 65 0 -565 -565z m-979 21 l-350 -350
-40 19 c-23 10 -41 21 -41 24 0 3 174 180 388 394 l387 387 3 -62 3 -62 -350
-350z m363 189 c6 -16 -48 -74 -286 -312 l-293 -291 -45 19 -44 20 324 325
325 324 7 -32 c3 -18 9 -42 12 -53z m131 -55 l40 0 -300 -300 c-165 -165 -305
-300 -311 -300 -6 0 -29 7 -49 16 l-38 16 289 289 c229 229 293 289 309 284
11 -2 38 -5 60 -5z m-86 -326 l-325 -325 -47 12 c-26 6 -47 14 -47 18 0 3 138
144 307 313 l308 308 65 0 65 0 -326 -326z m181 -19 l-346 -346 -53 12 -54 11
334 334 334 334 65 0 65 0 -345 -345z"/>
<path d="M203 4958 c-174 -172 -196 -198 -191 -231 3 -19 32 5 192 163 103
102 192 193 197 203 8 14 5 17 -17 17 -21 0 -60 -33 -181 -152z"/>
<path d="M303 4858 c-140 -139 -264 -265 -275 -281 -10 -15 -18 -37 -16 -50 3
-18 49 23 292 263 158 157 292 293 297 303 8 14 5 17 -17 17 -22 0 -75 -47
-281 -252z"/>
<path d="M402 4758 c-194 -194 -362 -365 -373 -381 -11 -15 -19 -37 -17 -50 4
-18 67 40 392 363 213 212 392 393 397 403 8 14 5 17 -18 17 -22 0 -89 -62
-381 -352z"/>
<path d="M502 4658 c-249 -249 -462 -465 -473 -481 -11 -15 -19 -37 -17 -50 4
-18 84 57 492 463 268 267 492 493 497 503 8 14 5 17 -18 17 -22 0 -104 -76
-481 -452z"/>
<path d="M602 4558 c-304 -304 -562 -565 -573 -581 -11 -15 -19 -37 -17 -50 4
-18 101 75 592 563 323 322 592 593 597 603 8 14 5 17 -18 17 -23 0 -118 -91
-581 -552z"/>
<path d="M702 4458 c-359 -359 -662 -665 -673 -681 -11 -15 -19 -37 -17 -50 4
-18 118 92 692 663 378 377 692 693 697 703 8 14 5 17 -18 17 -23 0 -133 -106
-681 -652z"/>
<path d="M4396 750 c-394 -393 -722 -723 -727 -732 -8 -15 -5 -18 18 -18 23 0
137 110 711 683 376 375 692 694 703 710 11 15 19 37 17 50 -4 18 -124 -97
-722 -693z"/>
<path d="M4496 650 c-339 -338 -622 -623 -627 -632 -8 -15 -5 -18 18 -18 23 0
123 95 611 583 321 320 592 594 603 610 11 15 19 37 17 50 -4 18 -106 -80
-622 -593z"/>
<path d="M4596 550 c-284 -283 -522 -523 -527 -533 -8 -14 -5 -17 18 -17 23 0
108 81 511 483 266 265 492 494 503 510 11 15 19 37 17 50 -4 18 -89 -62 -522
-493z"/>
<path d="M4696 450 c-229 -228 -422 -423 -427 -432 -8 -15 -5 -18 18 -18 22 0
93 66 411 383 211 210 392 394 403 410 11 15 19 37 17 50 -4 18 -72 -45 -422
-393z"/>
<path d="M4796 350 c-174 -173 -322 -323 -327 -332 -8 -15 -5 -18 17 -18 23 0
80 52 312 282 156 156 293 295 303 311 11 15 19 37 17 50 -4 18 -54 -28 -322
-293z"/>
<path d="M4896 250 c-119 -118 -222 -223 -227 -232 -8 -15 -5 -18 17 -18 21 0
65 37 211 183 205 202 226 227 221 260 -3 19 -37 -11 -222 -193z"/>
<path d="M4996 150 c-136 -133 -149 -150 -111 -150 18 0 49 23 111 82 102 98
127 130 122 161 -3 19 -19 7 -122 -93z"/>
</g>
</svg>
